<mxfile host="Electron" modified="2024-11-03T15:52:20.899Z" agent="Mozilla/5.0 (Windows NT 10.0; Win64; x64) AppleWebKit/537.36 (KHTML, like Gecko) draw.io/24.0.4 Chrome/120.0.6099.109 Electron/28.1.0 Safari/537.36" etag="pZY23YW226IV2nOOtt1g" version="24.0.4" type="device">
  <diagram name="Página-1" id="GQdvmX36VhRcsmJmANc6">
    <mxGraphModel dx="1467" dy="953" grid="1" gridSize="10" guides="1" tooltips="1" connect="1" arrows="1" fold="1" page="1" pageScale="1" pageWidth="1169" pageHeight="827" math="0" shadow="0">
      <root>
        <mxCell id="0" />
        <mxCell id="1" parent="0" />
        <mxCell id="8SaEPaQKwvclrSPjpveD-3" value="" style="edgeStyle=orthogonalEdgeStyle;rounded=0;orthogonalLoop=1;jettySize=auto;html=1;" edge="1" parent="1" source="8SaEPaQKwvclrSPjpveD-1" target="8SaEPaQKwvclrSPjpveD-2">
          <mxGeometry relative="1" as="geometry" />
        </mxCell>
        <mxCell id="8SaEPaQKwvclrSPjpveD-1" value="INDEX" style="rounded=0;whiteSpace=wrap;html=1;" vertex="1" parent="1">
          <mxGeometry x="465" y="60" width="120" height="60" as="geometry" />
        </mxCell>
        <mxCell id="8SaEPaQKwvclrSPjpveD-5" value="" style="edgeStyle=orthogonalEdgeStyle;rounded=0;orthogonalLoop=1;jettySize=auto;html=1;" edge="1" parent="1" source="8SaEPaQKwvclrSPjpveD-2" target="8SaEPaQKwvclrSPjpveD-4">
          <mxGeometry relative="1" as="geometry" />
        </mxCell>
        <mxCell id="8SaEPaQKwvclrSPjpveD-23" style="edgeStyle=orthogonalEdgeStyle;rounded=0;orthogonalLoop=1;jettySize=auto;html=1;" edge="1" parent="1" source="8SaEPaQKwvclrSPjpveD-2" target="8SaEPaQKwvclrSPjpveD-6">
          <mxGeometry relative="1" as="geometry" />
        </mxCell>
        <mxCell id="8SaEPaQKwvclrSPjpveD-2" value="Login" style="rounded=0;whiteSpace=wrap;html=1;" vertex="1" parent="1">
          <mxGeometry x="465" y="200" width="120" height="60" as="geometry" />
        </mxCell>
        <mxCell id="8SaEPaQKwvclrSPjpveD-24" style="edgeStyle=orthogonalEdgeStyle;rounded=0;orthogonalLoop=1;jettySize=auto;html=1;entryX=0.5;entryY=0;entryDx=0;entryDy=0;" edge="1" parent="1" source="8SaEPaQKwvclrSPjpveD-4" target="8SaEPaQKwvclrSPjpveD-6">
          <mxGeometry relative="1" as="geometry" />
        </mxCell>
        <mxCell id="8SaEPaQKwvclrSPjpveD-4" value="Registrarse" style="rounded=0;whiteSpace=wrap;html=1;" vertex="1" parent="1">
          <mxGeometry x="665" y="200" width="120" height="60" as="geometry" />
        </mxCell>
        <mxCell id="8SaEPaQKwvclrSPjpveD-8" value="" style="edgeStyle=orthogonalEdgeStyle;rounded=0;orthogonalLoop=1;jettySize=auto;html=1;" edge="1" parent="1" source="8SaEPaQKwvclrSPjpveD-6" target="8SaEPaQKwvclrSPjpveD-7">
          <mxGeometry relative="1" as="geometry" />
        </mxCell>
        <mxCell id="8SaEPaQKwvclrSPjpveD-10" value="" style="edgeStyle=orthogonalEdgeStyle;rounded=0;orthogonalLoop=1;jettySize=auto;html=1;" edge="1" parent="1">
          <mxGeometry relative="1" as="geometry">
            <mxPoint x="630" y="405" as="sourcePoint" />
            <mxPoint x="480" y="475" as="targetPoint" />
            <Array as="points">
              <mxPoint x="630" y="435" />
              <mxPoint x="480" y="435" />
            </Array>
          </mxGeometry>
        </mxCell>
        <mxCell id="8SaEPaQKwvclrSPjpveD-13" value="" style="edgeStyle=orthogonalEdgeStyle;rounded=0;orthogonalLoop=1;jettySize=auto;html=1;" edge="1" parent="1" source="8SaEPaQKwvclrSPjpveD-6" target="8SaEPaQKwvclrSPjpveD-12">
          <mxGeometry relative="1" as="geometry" />
        </mxCell>
        <mxCell id="8SaEPaQKwvclrSPjpveD-15" value="" style="edgeStyle=orthogonalEdgeStyle;rounded=0;orthogonalLoop=1;jettySize=auto;html=1;" edge="1" parent="1" source="8SaEPaQKwvclrSPjpveD-6" target="8SaEPaQKwvclrSPjpveD-14">
          <mxGeometry relative="1" as="geometry" />
        </mxCell>
        <mxCell id="8SaEPaQKwvclrSPjpveD-6" value="Main" style="rounded=0;whiteSpace=wrap;html=1;" vertex="1" parent="1">
          <mxGeometry x="570" y="340" width="120" height="60" as="geometry" />
        </mxCell>
        <mxCell id="8SaEPaQKwvclrSPjpveD-7" value="Publicaciones_motociclistas" style="rounded=0;whiteSpace=wrap;html=1;" vertex="1" parent="1">
          <mxGeometry x="311" y="340" width="180" height="60" as="geometry" />
        </mxCell>
        <mxCell id="8SaEPaQKwvclrSPjpveD-9" value="Perfil_postulante" style="rounded=0;whiteSpace=wrap;html=1;" vertex="1" parent="1">
          <mxGeometry x="420" y="476" width="120" height="60" as="geometry" />
        </mxCell>
        <mxCell id="8SaEPaQKwvclrSPjpveD-19" value="" style="edgeStyle=orthogonalEdgeStyle;rounded=0;orthogonalLoop=1;jettySize=auto;html=1;" edge="1" parent="1" source="8SaEPaQKwvclrSPjpveD-12" target="8SaEPaQKwvclrSPjpveD-18">
          <mxGeometry relative="1" as="geometry" />
        </mxCell>
        <mxCell id="8SaEPaQKwvclrSPjpveD-21" value="" style="edgeStyle=orthogonalEdgeStyle;rounded=0;orthogonalLoop=1;jettySize=auto;html=1;" edge="1" parent="1" source="8SaEPaQKwvclrSPjpveD-12" target="8SaEPaQKwvclrSPjpveD-20">
          <mxGeometry relative="1" as="geometry" />
        </mxCell>
        <mxCell id="8SaEPaQKwvclrSPjpveD-12" value="Notificaciones" style="rounded=0;whiteSpace=wrap;html=1;" vertex="1" parent="1">
          <mxGeometry x="610" y="470" width="120" height="60" as="geometry" />
        </mxCell>
        <mxCell id="8SaEPaQKwvclrSPjpveD-17" value="" style="edgeStyle=orthogonalEdgeStyle;rounded=0;orthogonalLoop=1;jettySize=auto;html=1;" edge="1" parent="1" source="8SaEPaQKwvclrSPjpveD-14" target="8SaEPaQKwvclrSPjpveD-16">
          <mxGeometry relative="1" as="geometry" />
        </mxCell>
        <mxCell id="8SaEPaQKwvclrSPjpveD-14" value="Mis_postulaciones" style="rounded=0;whiteSpace=wrap;html=1;" vertex="1" parent="1">
          <mxGeometry x="770" y="340" width="120" height="60" as="geometry" />
        </mxCell>
        <mxCell id="8SaEPaQKwvclrSPjpveD-16" value="Ejecutivo" style="rounded=0;whiteSpace=wrap;html=1;" vertex="1" parent="1">
          <mxGeometry x="970" y="340" width="120" height="60" as="geometry" />
        </mxCell>
        <mxCell id="8SaEPaQKwvclrSPjpveD-22" style="edgeStyle=orthogonalEdgeStyle;rounded=0;orthogonalLoop=1;jettySize=auto;html=1;entryX=0.5;entryY=1;entryDx=0;entryDy=0;" edge="1" parent="1" source="8SaEPaQKwvclrSPjpveD-18" target="8SaEPaQKwvclrSPjpveD-20">
          <mxGeometry relative="1" as="geometry" />
        </mxCell>
        <mxCell id="8SaEPaQKwvclrSPjpveD-18" value="Notificaciones_publicacion" style="rounded=0;whiteSpace=wrap;html=1;" vertex="1" parent="1">
          <mxGeometry x="580" y="610" width="180" height="60" as="geometry" />
        </mxCell>
        <mxCell id="8SaEPaQKwvclrSPjpveD-20" value="Notificaciones_chat" style="rounded=0;whiteSpace=wrap;html=1;" vertex="1" parent="1">
          <mxGeometry x="810" y="470" width="120" height="60" as="geometry" />
        </mxCell>
        <mxCell id="8SaEPaQKwvclrSPjpveD-26" value="&lt;h1 style=&quot;margin-top: 0px;&quot;&gt;OJO&lt;/h1&gt;&lt;p&gt;Tanto el login, como el registrarse los está creando German, por ende de momento el &quot;INDEX&quot; conecta directamente con el &quot;Main&quot;&lt;/p&gt;" style="text;html=1;whiteSpace=wrap;overflow=hidden;rounded=0;" vertex="1" parent="1">
          <mxGeometry x="640" y="70" width="280" height="120" as="geometry" />
        </mxCell>
        <mxCell id="8SaEPaQKwvclrSPjpveD-28" value="&lt;h1 style=&quot;margin-top: 0px;&quot;&gt;Mapeo de paginas (vista postulante)&lt;/h1&gt;&lt;p&gt;Diagrama para identificar las paginas del sitio desde el punto de vista de alguien que se ha registrado como &quot;Postulante&quot;&lt;/p&gt;" style="text;html=1;whiteSpace=wrap;overflow=hidden;rounded=0;" vertex="1" parent="1">
          <mxGeometry x="40" y="40" width="280" height="120" as="geometry" />
        </mxCell>
      </root>
    </mxGraphModel>
  </diagram>
</mxfile>
